<?xml version="1.0" encoding="UTF-8"?>
<!-- Generator: visioncortex VTracer 0.6.12 -->
<svg version="1.1" xmlns="http://www.w3.org/2000/svg" width="2184" height="1920">
<path d="M0 0 C0.368 -0.002 0.368 -0.002 2.229 -0.009 C4.7 -0.017 7.171 -0.011 9.642 -0.005 C11.411 -0.008 13.18 -0.011 14.949 -0.015 C19.759 -0.025 24.569 -0.021 29.379 -0.015 C34.406 -0.01 39.433 -0.014 44.461 -0.017 C52.905 -0.021 61.348 -0.016 69.792 -0.007 C79.561 0.004 89.331 0.001 99.101 -0.01 C107.48 -0.019 115.86 -0.021 124.24 -0.016 C129.248 -0.012 134.257 -0.012 139.265 -0.019 C143.973 -0.024 148.681 -0.02 153.389 -0.009 C155.12 -0.006 156.85 -0.007 158.581 -0.011 C160.938 -0.017 163.295 -0.01 165.652 0 C166.341 -0.004 167.031 -0.009 167.742 -0.014 C171.341 0.016 172.735 0.194 175.826 2.254 C176.203 4.424 176.203 4.424 176.205 7.184 C176.209 7.709 176.209 7.709 176.23 10.369 C176.223 11.535 176.217 12.701 176.211 13.903 C176.216 15.138 176.221 16.374 176.226 17.646 C176.238 21.103 176.235 24.558 176.228 28.015 C176.223 31.766 176.235 35.518 176.245 39.269 C176.26 45.856 176.264 52.443 176.261 59.03 C176.256 68.831 176.269 78.631 176.285 88.432 C176.311 104.945 176.324 121.457 176.328 137.97 C176.333 154.399 176.344 170.829 176.363 187.258 C176.364 188.282 176.365 189.305 176.366 190.36 C176.372 195.56 176.378 200.761 176.385 205.961 C176.428 242.888 176.458 279.815 176.479 316.742 C176.5 352.347 176.527 387.951 176.563 423.555 C176.564 424.1 176.564 424.1 176.567 426.855 C176.577 436.712 176.587 446.57 176.597 456.427 C176.665 522.321 176.726 588.216 176.77 654.11 C176.777 664.231 176.784 674.353 176.793 684.474 C176.801 694.104 176.809 703.735 176.816 713.365 C176.816 714.205 176.817 715.045 176.817 715.911 C176.832 737.432 176.824 758.953 176.776 780.474 C176.765 785.146 176.756 789.818 176.749 794.49 C176.746 795.763 176.744 797.035 176.742 798.346 C176.738 800.847 176.734 803.349 176.73 805.85 C176.72 811.66 176.706 817.469 176.682 823.279 C176.184 943.494 176.184 943.494 202.826 976.254 C203.171 976.68 203.171 976.68 204.916 978.836 C218.142 994.341 236.919 1001.122 256.826 1003.254 C281.767 1004.395 306.363 1003.172 326.158 986.262 C352.563 961.701 355.203 915.971 356.826 882.254 C357.195 870.94 357.115 859.612 357.105 848.294 C357.104 843.766 357.114 839.239 357.122 834.712 C357.135 826.804 357.141 818.895 357.142 810.987 C357.143 799.228 357.156 787.468 357.171 775.709 C357.196 755.922 357.212 736.135 357.223 716.347 C357.233 696.77 357.248 677.192 357.268 657.615 C357.269 656.395 357.27 655.176 357.272 653.919 C357.278 647.725 357.284 641.531 357.291 635.336 C357.337 591.52 357.373 547.705 357.404 503.889 C357.434 461.336 357.469 418.783 357.509 376.23 C357.51 374.917 357.511 373.604 357.512 372.251 C357.525 359.067 357.537 345.882 357.55 332.697 C357.575 305.841 357.6 278.985 357.625 252.129 C357.626 250.894 357.627 249.659 357.628 248.387 C357.703 166.009 357.766 83.632 357.826 1.254 C360.745 -0.206 363.673 0.106 366.873 0.107 C367.607 0.103 368.341 0.099 369.097 0.096 C371.569 0.085 374.041 0.081 376.513 0.077 C378.28 0.071 380.047 0.064 381.814 0.057 C386.624 0.04 391.434 0.029 396.244 0.021 C399.247 0.016 402.25 0.01 405.253 0.003 C414.641 -0.016 424.03 -0.03 433.419 -0.038 C444.269 -0.048 455.119 -0.074 465.969 -0.115 C474.347 -0.145 482.726 -0.16 491.105 -0.163 C496.113 -0.165 501.121 -0.174 506.129 -0.2 C510.839 -0.223 515.548 -0.227 520.258 -0.217 C521.988 -0.216 523.718 -0.223 525.448 -0.236 C527.808 -0.254 530.166 -0.247 532.525 -0.234 C533.212 -0.245 533.9 -0.256 534.608 -0.267 C537.716 -0.225 539.497 0.004 542.001 1.904 C544.338 4.913 544.326 6.557 544.325 10.343 C544.335 11.602 544.344 12.862 544.354 14.159 C544.344 15.562 544.334 16.965 544.324 18.368 C544.327 19.86 544.333 21.352 544.34 22.844 C544.353 26.969 544.342 31.094 544.327 35.219 C544.315 39.698 544.327 44.177 544.335 48.656 C544.346 56.515 544.343 64.373 544.33 72.232 C544.31 83.92 544.313 95.608 544.321 107.296 C544.334 126.965 544.327 146.634 544.31 166.303 C544.293 185.809 544.283 205.315 544.283 224.822 C544.283 225.428 544.283 225.428 544.283 228.497 C544.283 233.42 544.284 238.344 544.284 243.267 C544.286 289.505 544.266 335.743 544.235 381.981 C544.208 423.006 544.195 464.032 544.197 505.058 C544.197 507.687 544.197 510.316 544.197 512.946 C544.197 513.596 544.197 513.596 544.197 516.885 C544.197 523.429 544.197 529.974 544.197 536.518 C544.197 537.809 544.198 539.101 544.198 540.431 C544.198 574.741 544.189 609.051 544.177 643.361 C544.176 644.584 544.176 645.806 544.175 647.066 C544.174 651.981 544.172 656.896 544.17 661.811 C544.164 678.858 544.161 695.905 544.16 712.952 C544.159 734.955 544.151 756.959 544.131 778.962 C544.121 790.579 544.116 802.195 544.119 813.811 C544.12 821.603 544.115 829.395 544.103 837.186 C544.096 841.605 544.093 846.024 544.098 850.443 C544.132 880.631 543.799 911.12 539.638 941.066 C539.586 941.457 539.586 941.457 539.323 943.436 C534.149 982.127 524.598 1020.844 505.85 1055.361 C504.734 1057.424 503.652 1059.502 502.568 1061.582 C487.782 1089.511 466.077 1115.375 440.503 1134.03 C438.793 1135.278 437.102 1136.55 435.412 1137.824 C404.984 1160.469 369.211 1172.27 332.076 1178.066 C331.739 1178.119 331.739 1178.119 330.036 1178.386 C316.055 1180.545 302.323 1181.422 288.197 1181.457 C287.414 1181.46 286.632 1181.463 285.825 1181.466 C281.67 1181.481 277.515 1181.49 273.36 1181.494 C269.989 1181.499 266.618 1181.512 263.247 1181.535 C242.887 1181.671 223.015 1181.254 202.826 1178.254 C202.091 1178.147 201.357 1178.04 200.6 1177.929 C196.84 1177.367 193.113 1176.699 189.388 1175.941 C188.857 1175.836 188.857 1175.836 186.169 1175.3 C134.473 1164.636 85.356 1136.181 52.826 1094.254 C52.468 1093.805 52.468 1093.805 50.658 1091.531 C10.704 1040.122 -4.54 973.021 -9.174 909.254 C-9.257 908.198 -9.341 907.142 -9.426 906.054 C-10.51 890.058 -10.321 874.029 -10.315 858.005 C-10.314 853.44 -10.319 848.875 -10.324 844.31 C-10.331 835.275 -10.333 826.24 -10.334 817.204 C-10.335 806.376 -10.341 795.547 -10.348 784.719 C-10.364 758.566 -10.37 732.414 -10.375 706.262 C-10.377 693.893 -10.381 681.524 -10.385 669.156 C-10.397 626.819 -10.408 584.482 -10.412 542.146 C-10.412 539.491 -10.412 536.836 -10.412 534.182 C-10.413 531.521 -10.413 528.86 -10.413 526.199 C-10.413 521.529 -10.414 516.859 -10.414 512.189 C-10.414 510.852 -10.414 509.516 -10.414 508.179 C-10.418 465.196 -10.433 422.213 -10.456 379.23 C-10.481 333.113 -10.496 286.997 -10.497 240.88 C-10.497 235.898 -10.497 230.915 -10.498 225.933 C-10.498 225.319 -10.498 225.319 -10.498 222.215 C-10.499 202.435 -10.51 182.655 -10.525 162.875 C-10.539 143.025 -10.542 123.175 -10.534 103.325 C-10.53 91.519 -10.534 79.712 -10.549 67.906 C-10.559 60.034 -10.558 52.163 -10.548 44.291 C-10.542 39.797 -10.542 35.303 -10.554 30.809 C-10.566 26.729 -10.563 22.65 -10.55 18.57 C-10.547 17.095 -10.55 15.621 -10.558 14.146 C-10.568 12.158 -10.559 10.17 -10.548 8.182 C-10.548 7.077 -10.548 5.972 -10.549 4.833 C-10.425 3.982 -10.301 3.131 -10.174 2.254 C-6.61 -0.122 -4.112 -0.027 0 0 Z " fill="#001A4D" transform="translate(629.174072265625,738.7460327148438)"/>
<path d="M0 0 C0.548 -0.002 0.548 -0.002 3.319 -0.014 C4.538 -0.013 5.756 -0.013 7.012 -0.013 C8.295 -0.017 9.578 -0.02 10.9 -0.024 C14.478 -0.034 18.057 -0.038 21.636 -0.04 C25.491 -0.044 29.346 -0.054 33.2 -0.063 C42.529 -0.082 51.858 -0.093 61.186 -0.101 C65.587 -0.106 69.987 -0.111 74.388 -0.116 C89.036 -0.133 103.685 -0.148 118.333 -0.155 C122.139 -0.157 125.944 -0.159 129.75 -0.161 C130.696 -0.161 131.642 -0.162 132.616 -0.162 C147.874 -0.171 163.131 -0.196 178.389 -0.229 C194.081 -0.262 209.774 -0.28 225.467 -0.283 C234.265 -0.285 243.064 -0.294 251.863 -0.319 C259.373 -0.341 266.882 -0.349 274.392 -0.339 C278.211 -0.335 282.03 -0.336 285.85 -0.356 C349.872 -0.669 409.185 16.791 457.976 59.134 C458.558 59.637 459.14 60.139 459.74 60.657 C477.873 76.443 492.336 96.168 503.976 117.134 C504.194 117.525 504.194 117.525 505.296 119.504 C515.457 137.92 523.218 156.912 528.976 177.134 C529.098 177.561 529.098 177.561 529.717 179.722 C535.009 198.566 538.09 217.803 540.976 237.134 C541.062 237.702 541.062 237.702 541.496 240.577 C543.539 254.555 544.384 268.582 545.039 282.681 C545.082 283.622 545.126 284.563 545.171 285.532 C546.189 308.053 546.283 330.564 546.237 353.105 C546.225 358.742 546.232 364.378 546.244 370.015 C546.284 393.178 546.024 416.299 545.039 439.443 C544.996 440.432 544.954 441.42 544.911 442.439 C541.716 515.795 527.657 592.473 475.937 648.021 C474.13 649.968 472.428 651.971 470.726 654.009 C457.723 668.824 441.153 681.581 423.976 691.134 C423.18 691.581 422.384 692.028 421.564 692.489 C348.263 733.273 264.625 726.227 182.976 727.134 C182.976 871.344 182.976 1015.554 182.976 1164.134 C180.016 1165.614 177.015 1165.271 173.77 1165.261 C173.395 1165.262 173.395 1165.262 171.495 1165.266 C168.965 1165.27 166.436 1165.267 163.906 1165.264 C162.098 1165.265 160.29 1165.267 158.481 1165.269 C153.56 1165.273 148.638 1165.272 143.717 1165.269 C138.575 1165.266 133.433 1165.268 128.29 1165.27 C119.652 1165.272 111.015 1165.269 102.377 1165.265 C92.381 1165.259 82.386 1165.261 72.391 1165.266 C63.82 1165.271 55.25 1165.272 46.679 1165.269 C41.555 1165.267 36.432 1165.267 31.308 1165.271 C26.491 1165.273 21.674 1165.271 16.857 1165.266 C15.086 1165.264 13.315 1165.265 11.544 1165.267 C9.132 1165.27 6.72 1165.266 4.309 1165.261 C3.956 1165.262 3.956 1165.262 2.17 1165.268 C-0.847 1165.256 -3.136 1165.097 -6.024 1164.134 C-6.029 1128.553 -6.035 1092.972 -6.04 1057.39 C-6.04 1056.694 -6.04 1055.998 -6.04 1055.281 C-6.051 980.702 -6.06 906.124 -6.066 831.546 C-6.066 829.89 -6.067 828.234 -6.067 826.578 C-6.07 791.822 -6.072 757.066 -6.075 722.31 C-6.076 704.851 -6.077 687.393 -6.079 669.935 C-6.079 667.301 -6.079 664.668 -6.079 662.034 C-6.082 621.465 -6.086 580.895 -6.093 540.326 C-6.093 539.453 -6.093 538.58 -6.093 537.681 C-6.095 523.609 -6.098 509.536 -6.1 495.464 C-6.106 454.949 -6.113 414.433 -6.115 373.917 C-6.115 373.085 -6.115 372.252 -6.115 371.394 C-6.116 353.121 -6.117 334.847 -6.118 316.573 C-6.118 309.221 -6.119 301.869 -6.119 294.517 C-6.119 294.114 -6.119 294.114 -6.119 292.078 C-6.12 266.121 -6.124 240.164 -6.13 214.206 C-6.136 188.074 -6.139 161.941 -6.138 135.809 C-6.137 132.203 -6.137 128.598 -6.137 124.992 C-6.137 124.285 -6.137 123.579 -6.137 122.85 C-6.137 111.627 -6.14 100.403 -6.144 89.18 C-6.148 78.162 -6.149 67.145 -6.146 56.127 C-6.144 50.225 -6.144 44.324 -6.149 38.423 C-6.153 33.067 -6.152 27.711 -6.148 22.354 C-6.147 20.417 -6.148 18.479 -6.151 16.541 C-6.155 13.933 -6.152 11.324 -6.148 8.716 C-6.151 7.951 -6.153 7.187 -6.156 6.4 C-6.135 0.407 -5.922 0.011 0 0 Z M182.976 174.134 C182.815 176.761 182.719 179.363 182.664 181.993 C182.644 182.818 182.623 183.642 182.602 184.492 C182.536 187.252 182.478 190.012 182.422 192.772 C182.401 193.731 182.38 194.689 182.358 195.677 C181.888 217.373 181.828 239.065 181.842 260.765 C181.844 265.109 181.842 269.453 181.84 273.798 C181.835 286.58 181.84 299.362 181.847 312.143 C181.851 319.351 181.853 326.558 181.855 333.765 C181.869 389.4 181.919 445.035 182.382 500.668 C182.413 504.443 182.443 508.218 182.473 511.994 C182.519 517.734 182.571 523.473 182.629 529.213 C182.649 531.248 182.668 533.283 182.685 535.318 C182.709 538.012 182.739 540.707 182.771 543.401 C182.776 544.184 182.782 544.967 182.788 545.773 C182.861 551.02 182.861 551.02 183.976 552.134 C186.579 552.24 189.155 552.281 191.758 552.279 C192.167 552.281 192.167 552.281 194.233 552.29 C196.956 552.299 199.679 552.301 202.402 552.302 C204.303 552.305 206.204 552.309 208.105 552.312 C212.111 552.318 216.117 552.32 220.123 552.32 C225.201 552.319 230.278 552.333 235.355 552.35 C239.296 552.362 243.237 552.363 247.178 552.363 C249.045 552.364 250.912 552.368 252.78 552.376 C279.696 552.478 309.526 551.406 329.878 531.326 C330.571 530.602 331.263 529.879 331.976 529.134 C332.596 528.545 333.216 527.956 333.855 527.349 C359.681 501.06 357.298 455.502 357.278 421.607 C357.277 418.023 357.281 414.438 357.286 410.854 C357.297 402.371 357.298 393.888 357.292 385.405 C357.286 376.748 357.298 368.09 357.319 359.432 C357.337 351.92 357.343 344.409 357.34 336.897 C357.338 332.446 357.34 327.994 357.354 323.543 C357.635 227.2 357.635 227.2 325.789 193.572 C306.443 174.847 282.212 172.642 256.667 172.806 C254.563 172.809 252.458 172.811 250.353 172.812 C245.981 172.816 241.608 172.831 237.236 172.853 C231.62 172.882 226.004 172.892 220.389 172.897 C216.061 172.901 211.733 172.911 207.405 172.923 C205.332 172.928 203.259 172.933 201.186 172.937 C198.31 172.944 195.433 172.957 192.556 172.973 C191.697 172.974 190.837 172.975 189.952 172.976 C184.091 173.02 184.091 173.02 182.976 174.134 Z " fill="#001A4D" transform="translate(1301.023983001709,740.8657789230347)"/>
<path d="M0 0 C7.614 4.375 15.325 8.551 23.08 12.67 C31.564 17.18 39.99 21.773 48.33 26.545 C58.166 32.17 68.148 37.487 78.169 42.772 C86.754 47.303 95.279 51.909 103.705 56.733 C113.706 62.457 123.846 67.892 134.024 73.293 C135.296 73.968 136.569 74.643 137.841 75.319 C138.463 75.648 139.084 75.978 139.725 76.318 C147.092 80.232 154.41 84.238 161.728 88.244 C167.502 91.405 173.29 94.538 179.08 97.67 C187.615 102.288 196.138 106.927 204.652 111.583 C209.567 114.266 214.491 116.932 219.427 119.576 C229.831 125.15 240.201 130.761 250.455 136.608 C259.383 141.697 268.403 146.595 277.474 151.425 C287.209 156.609 296.882 161.898 306.529 167.244 C315.137 172.013 323.778 176.713 332.455 181.358 C341.463 186.182 350.381 191.143 359.257 196.206 C367.388 200.824 375.625 205.237 383.88 209.628 C391.844 213.866 399.745 218.197 407.58 222.67 C417.785 228.495 428.123 234.058 438.492 239.584 C445.313 243.22 452.111 246.896 458.892 250.608 C467.258 255.186 475.652 259.707 484.08 264.17 C484.08 265.16 484.08 266.15 484.08 267.17 C475.711 269.141 467.329 270.983 458.896 272.658 C457.762 272.884 456.627 273.11 455.458 273.342 C453.059 273.818 450.66 274.293 448.26 274.767 C444.736 275.464 441.213 276.171 437.691 276.879 C417.573 280.876 397.353 284.078 377.08 287.17 C376.824 298.523 376.629 309.874 376.51 321.229 C376.452 326.502 376.375 331.773 376.25 337.044 C376.13 342.134 376.064 347.223 376.036 352.314 C376.016 354.254 375.976 356.194 375.917 358.133 C375.468 373.384 375.468 373.384 379.507 377.86 C382.305 379.635 385.031 380.898 388.08 382.17 C395.896 390.146 400.55 400.628 401.33 411.733 C401.144 421.558 397.966 429.447 392.08 437.17 C389.76 440.65 389.876 441.739 390.033 445.819 C390.053 446.421 390.053 446.421 390.157 449.47 C390.215 450.828 390.272 452.187 390.33 453.545 C390.383 454.992 390.436 456.439 390.488 457.886 C390.607 461.147 390.733 464.407 390.863 467.667 C391.1 473.634 391.314 479.601 391.529 485.569 C392.321 507.46 393.186 529.348 394.142 551.233 C394.182 552.167 394.222 553.101 394.264 554.063 C394.967 570.373 394.967 570.373 395.607 577.373 C396.283 584.853 396.401 592.353 396.58 599.858 C396.787 608.446 397.035 617.018 397.58 625.592 C398.201 635.418 398.414 645.247 398.632 655.089 C398.844 664.457 399.216 673.776 399.843 683.126 C400.352 691.252 400.447 699.399 400.632 707.537 C400.685 709.822 400.741 712.107 400.798 714.393 C400.812 715.053 400.825 715.713 400.839 716.392 C400.953 720.918 401.229 725.418 401.552 729.934 C402.146 738.585 402.44 747.238 402.71 755.904 C402.801 758.8 402.894 761.696 402.989 764.592 C403.188 770.743 403.384 776.894 403.58 783.045 C403.806 790.179 404.035 797.312 404.267 804.445 C404.358 807.266 404.446 810.086 404.535 812.907 C404.819 821.788 405.188 830.654 405.739 839.523 C406.046 844.47 406.261 849.407 406.361 854.362 C406.379 855.121 406.398 855.88 406.417 856.662 C406.493 859.804 406.562 862.947 406.632 866.089 C406.809 873.928 407.015 881.748 407.544 889.573 C408.275 900.508 408.626 911.459 409.01 922.412 C409.141 926.135 409.279 929.858 409.417 933.58 C409.679 940.776 409.889 947.972 410.08 955.17 C410.114 956.323 410.148 957.476 410.184 958.663 C410.275 961.957 410.336 965.25 410.388 968.545 C410.418 969.519 410.448 970.494 410.479 971.497 C410.533 977.631 409.675 981.157 406.08 986.17 C401.724 990.207 398.328 991.529 392.34 991.451 C388.143 990.93 384.539 989.061 380.767 987.233 C379.188 986.494 377.609 985.755 376.029 985.018 C375.341 984.688 374.654 984.358 373.946 984.018 C365.796 980.315 354.439 981.169 346.08 984.17 C344.129 985.03 342.195 985.922 340.26 986.817 C327.17 992.862 327.17 992.862 320.08 991.17 C315.156 988.8 312.751 985.877 310.08 981.17 C309.597 977.884 309.597 977.884 309.625 974.229 C309.626 973.548 309.626 972.866 309.627 972.164 C309.636 969.867 309.675 967.572 309.716 965.276 C309.732 963.601 309.747 961.926 309.762 960.252 C310.011 937.248 310.915 914.252 311.755 891.265 C311.941 886.14 312.122 881.015 312.303 875.89 C313.452 843.349 314.66 810.81 316.04 778.278 C316.67 763.411 317.197 748.546 317.572 733.67 C317.967 718.012 318.581 702.373 319.323 686.727 C319.667 679.464 319.995 672.2 320.326 664.936 C320.342 664.573 320.342 664.573 320.426 662.736 C321.032 649.445 321.579 636.153 322.08 622.858 C322.118 621.85 322.156 620.842 322.195 619.804 C322.399 614.401 322.601 608.997 322.803 603.594 C323.337 589.27 323.876 574.946 324.421 560.623 C324.485 558.951 324.549 557.278 324.612 555.606 C325.333 536.634 326.083 517.664 326.939 498.698 C326.974 497.921 327.009 497.144 327.045 496.344 C327.38 488.945 327.719 481.547 328.068 474.149 C328.164 472.122 328.258 470.094 328.352 468.067 C328.465 465.629 328.58 463.191 328.699 460.754 C329.728 438.49 329.728 438.49 325.767 434.045 C318.935 425.332 317.985 416.064 319.08 405.17 C321.65 393.932 327.475 385.416 337.08 379.17 C340.08 377.17 340.08 377.17 340.503 375.354 C340.526 374.611 340.548 373.868 340.572 373.102 C340.604 372.241 340.637 371.38 340.67 370.493 C340.691 369.54 340.711 368.586 340.732 367.604 C340.764 366.596 340.797 365.587 340.83 364.549 C340.933 361.089 341.009 357.63 341.08 354.17 C341.107 352.907 341.134 351.643 341.162 350.341 C341.348 341.357 341.487 332.372 341.612 323.386 C341.663 319.738 341.718 316.09 341.773 312.442 C341.879 305.351 341.981 298.261 342.08 291.17 C326.856 293.057 311.632 294.943 296.408 296.83 C289.336 297.707 282.263 298.583 275.19 299.46 C267.018 300.472 258.846 301.485 250.673 302.498 C250.343 302.539 250.343 302.539 248.671 302.746 C228.806 305.209 208.941 307.677 189.08 310.17 C186.889 322.815 184.701 335.461 182.517 348.108 C182.352 349.065 182.186 350.022 182.016 351.008 C176.487 383.029 171.033 415.063 165.642 447.108 C165.476 448.097 165.309 449.087 165.137 450.107 C163.115 462.128 161.096 474.149 159.08 486.17 C153.87 486.17 152.014 483.831 148.392 480.483 C141.133 473.983 133.561 468.04 125.764 462.205 C123.625 460.584 121.502 458.947 119.385 457.298 C109.962 449.982 100.348 443.076 90.405 436.485 C88.14 434.981 85.884 433.464 83.628 431.946 C74.017 425.52 64.191 419.686 54.01 414.209 C52.333 413.307 50.662 412.392 48.992 411.476 C-6.67 380.982 -68.052 364.047 -130.813 356.427 C-132.831 356.181 -134.848 355.926 -136.865 355.67 C-227.799 344.547 -321.94 358.039 -405.331 395.818 C-405.817 396.038 -405.817 396.038 -408.276 397.151 C-409.128 397.541 -409.981 397.932 -410.859 398.335 C-412.92 399.17 -412.92 399.17 -414.92 399.17 C-412.81 380.792 -410.017 362.543 -407.071 344.285 C-406.44 340.373 -405.815 336.461 -405.189 332.548 C-404.006 325.159 -402.819 317.77 -401.63 310.381 C-400.154 301.206 -398.684 292.031 -397.213 282.856 C-395.707 273.458 -394.2 264.06 -392.69 254.662 C-392.459 253.222 -392.227 251.783 -391.996 250.343 C-391.557 247.607 -391.117 244.872 -390.676 242.137 C-389.761 236.439 -388.85 230.742 -387.966 225.039 C-387.826 224.142 -387.687 223.245 -387.543 222.321 C-387.296 220.725 -387.051 219.129 -386.809 217.532 C-386.36 214.63 -385.851 211.963 -384.92 209.17 C-385.791 208.9 -386.662 208.629 -387.56 208.35 C-390.789 207.216 -393.661 205.877 -396.69 204.291 C-397.809 203.708 -398.929 203.125 -400.082 202.525 C-401.299 201.886 -402.516 201.247 -403.733 200.608 C-405.672 199.595 -407.611 198.585 -409.55 197.574 C-410.908 196.866 -412.266 196.158 -413.623 195.449 C-418.537 192.884 -423.463 190.345 -428.397 187.819 C-441.259 181.23 -454.088 174.615 -466.739 167.626 C-474.851 163.162 -483.077 158.929 -491.312 154.698 C-499.114 150.687 -506.867 146.604 -514.545 142.358 C-524.828 136.676 -535.277 131.334 -545.736 125.986 C-555.468 121.008 -565.132 115.94 -574.698 110.647 C-582.528 106.335 -590.467 102.249 -598.42 98.17 C-608.272 93.117 -618.056 87.974 -627.75 82.621 C-636.267 77.935 -644.904 73.483 -653.562 69.064 C-672.535 59.327 -672.535 59.327 -673.92 55.17 C-651.1 51.955 -628.267 48.878 -605.406 45.971 C-601.273 45.445 -597.141 44.916 -593.008 44.388 C-584.858 43.347 -576.707 42.308 -568.555 41.27 C-561.709 40.398 -554.863 39.525 -548.017 38.652 C-547.016 38.524 -546.014 38.397 -544.982 38.265 C-542.939 38.004 -540.895 37.744 -538.851 37.483 C-506.518 33.359 -474.186 29.24 -441.852 25.125 C-430.187 23.641 -418.523 22.156 -406.858 20.67 C-405.802 20.536 -404.747 20.401 -403.659 20.263 C-371.555 16.174 -339.455 12.057 -307.358 7.92 C-268.802 2.951 -230.242 -1.996 -191.681 -6.927 C-187.357 -7.48 -183.032 -8.033 -178.708 -8.586 C-175.924 -8.943 -173.14 -9.299 -170.356 -9.655 C-168.985 -9.83 -167.614 -10.006 -166.242 -10.181 C-158.93 -11.117 -151.618 -12.051 -144.305 -12.978 C-141.749 -13.302 -139.193 -13.626 -136.637 -13.95 C-135.397 -14.108 -134.157 -14.265 -132.879 -14.427 C-125.733 -15.336 -118.59 -16.266 -111.449 -17.218 C-107.096 -17.798 -102.741 -18.366 -98.385 -18.934 C-96.414 -19.193 -94.442 -19.458 -92.472 -19.728 C-55.976 -24.727 -31.691 -18.212 0 0 Z " fill="#6A0D91" transform="translate(1699.92041015625,311.829833984375)"/>
<path d="M0 0 C0.381 16.666 0.719 33.332 1 50 C1.017 50.976 1.033 51.953 1.05 52.959 C1.133 58.037 1.198 63.114 1.232 68.193 C1.244 69.684 1.261 71.176 1.283 72.667 C1.313 74.714 1.321 76.761 1.328 78.809 C1.337 79.941 1.347 81.073 1.356 82.24 C1 85 1 85 -0.052 86.499 C-2.913 88.703 -6.132 89.66 -9.521 90.775 C-10.292 91.037 -11.062 91.298 -11.855 91.567 C-14.432 92.439 -17.013 93.298 -19.594 94.156 C-21.433 94.775 -23.272 95.395 -25.11 96.015 C-30.054 97.68 -35.002 99.333 -39.95 100.983 C-42.964 101.988 -45.977 102.995 -48.989 104.003 C-64.547 109.209 -80.114 114.385 -95.682 119.557 C-103.049 122.005 -110.416 124.454 -117.781 126.906 C-118.805 127.247 -119.828 127.587 -120.882 127.938 C-137.067 133.328 -153.225 138.796 -169.359 144.335 C-177.244 147.041 -185.133 149.736 -193.033 152.396 C-193.804 152.658 -194.574 152.92 -195.368 153.19 C-200.77 155 -200.77 155 -203 155 C-203 155.66 -203 156.32 -203 157 C-202.181 157.246 -201.362 157.492 -200.518 157.746 C-196.396 159.215 -192.609 161.08 -188.715 163.062 C-187.936 163.454 -187.157 163.846 -186.355 164.25 C-183.881 165.496 -181.409 166.748 -178.938 168 C-176.462 169.252 -173.986 170.502 -171.509 171.75 C-169.972 172.524 -168.436 173.301 -166.901 174.08 C-166.551 174.257 -166.551 174.257 -164.777 175.152 C-164.167 175.462 -163.556 175.771 -162.928 176.09 C-158.26 178.294 -154.748 179.251 -149.528 179.258 C-148.22 179.265 -146.911 179.272 -145.564 179.279 C-144.121 179.277 -142.678 179.274 -141.236 179.271 C-139.711 179.276 -138.186 179.281 -136.662 179.287 C-133.384 179.299 -130.105 179.304 -126.827 179.305 C-121.647 179.307 -116.467 179.325 -111.286 179.346 C-98.423 179.395 -85.561 179.426 -72.698 179.447 C-62.694 179.464 -52.689 179.486 -42.685 179.53 C-37.531 179.552 -32.378 179.56 -27.224 179.558 C-24.025 179.559 -20.826 179.573 -17.627 179.591 C-16.139 179.596 -14.652 179.597 -13.164 179.592 C-11.14 179.586 -9.116 179.6 -7.091 179.615 C-5.957 179.617 -4.822 179.619 -3.653 179.621 C-2.777 179.746 -1.902 179.871 -1 180 C1.414 183.621 1.289 186.269 1.275 190.453 C1.277 190.831 1.277 190.831 1.29 192.745 C1.304 195.247 1.303 197.748 1.301 200.25 C1.305 201.987 1.309 203.725 1.314 205.462 C1.321 209.104 1.321 212.745 1.316 216.387 C1.31 221.058 1.327 225.728 1.35 230.399 C1.365 233.987 1.366 237.574 1.363 241.162 C1.363 242.884 1.368 244.607 1.378 246.329 C1.391 248.735 1.384 251.141 1.372 253.547 C1.38 254.261 1.388 254.975 1.395 255.71 C1.345 260.424 1.345 260.424 -0.008 262.683 C-3.183 264.782 -6.568 264.41 -10.25 264.378 C-11.106 264.382 -11.961 264.386 -12.843 264.391 C-15.735 264.402 -18.627 264.391 -21.519 264.381 C-23.603 264.384 -25.687 264.389 -27.772 264.395 C-33.519 264.408 -39.266 264.401 -45.013 264.392 C-51.203 264.385 -57.394 264.396 -63.584 264.404 C-75.016 264.417 -86.448 264.416 -97.88 264.407 C-108.44 264.4 -118.999 264.398 -129.559 264.401 C-129.908 264.402 -129.908 264.402 -131.679 264.402 C-134.518 264.403 -137.358 264.404 -140.198 264.405 C-166.852 264.414 -193.506 264.406 -220.16 264.39 C-243.858 264.375 -267.556 264.377 -291.255 264.391 C-317.86 264.407 -344.466 264.414 -371.072 264.404 C-373.907 264.403 -376.741 264.402 -379.575 264.401 C-379.924 264.401 -379.924 264.401 -381.69 264.401 C-392.245 264.397 -402.801 264.401 -413.356 264.409 C-425.353 264.417 -437.35 264.415 -449.347 264.399 C-455.474 264.391 -461.601 264.388 -467.727 264.398 C-473.327 264.407 -478.927 264.402 -484.527 264.386 C-486.562 264.383 -488.596 264.384 -490.63 264.392 C-493.379 264.401 -496.127 264.392 -498.876 264.378 C-499.68 264.385 -500.484 264.392 -501.312 264.399 C-503.517 264.376 -503.517 264.376 -507 264 C-509.416 260.376 -509.283 257.733 -509.259 253.547 C-509.262 252.79 -509.266 252.034 -509.269 251.255 C-509.278 248.753 -509.272 246.252 -509.266 243.75 C-509.267 242.013 -509.269 240.275 -509.271 238.538 C-509.274 234.896 -509.27 231.255 -509.261 227.613 C-509.249 222.942 -509.256 218.272 -509.268 213.601 C-509.275 210.013 -509.273 206.426 -509.268 202.838 C-509.266 201.116 -509.268 199.393 -509.273 197.671 C-509.278 195.265 -509.27 192.859 -509.259 190.453 C-509.263 189.739 -509.267 189.025 -509.271 188.29 C-509.24 184.632 -509.089 183.133 -507 180 C-504.374 179.706 -501.984 179.609 -499.357 179.639 C-498.958 179.638 -498.958 179.638 -496.938 179.631 C-494.25 179.627 -491.561 179.643 -488.873 179.659 C-486.951 179.66 -485.03 179.66 -483.108 179.658 C-477.879 179.657 -472.65 179.675 -467.421 179.696 C-461.961 179.715 -456.501 179.716 -451.041 179.72 C-440.696 179.729 -430.351 179.754 -420.006 179.784 C-408.231 179.817 -396.457 179.834 -384.682 179.849 C-360.454 179.88 -336.227 179.933 -312 180 C-314.843 176.984 -317.756 175.443 -321.484 173.594 C-322.127 173.273 -322.77 172.952 -323.433 172.622 C-325.536 171.575 -327.643 170.537 -329.75 169.5 C-331.22 168.772 -332.689 168.043 -334.159 167.314 C-352.311 158.327 -370.628 149.695 -388.962 141.087 C-399.731 136.03 -410.463 130.903 -421.17 125.717 C-428.969 121.95 -436.818 118.304 -444.688 114.688 C-456.514 109.245 -468.161 103.487 -479.782 97.621 C-487.62 93.668 -495.479 89.785 -503.497 86.206 C-507.896 84.207 -507.896 84.207 -509 82 C-509.097 79.791 -509.128 77.578 -509.129 75.366 C-509.131 74.685 -509.133 74.003 -509.135 73.301 C-509.139 71.041 -509.136 68.78 -509.133 66.52 C-509.133 64.947 -509.134 63.375 -509.136 61.803 C-509.137 58.502 -509.135 55.2 -509.13 51.899 C-509.125 47.68 -509.128 43.462 -509.134 39.243 C-509.138 35.992 -509.136 32.742 -509.134 29.491 C-509.133 27.937 -509.134 26.382 -509.136 24.828 C-509.139 22.645 -509.135 20.463 -509.129 18.281 C-509.129 17.041 -509.128 15.801 -509.127 14.524 C-508.998 10.952 -508.57 7.526 -508 4 C-502.392 4.5 -498.147 5.522 -492.984 7.922 C-492.34 8.218 -491.695 8.514 -491.031 8.819 C-488.932 9.785 -486.841 10.767 -484.75 11.75 C-483.269 12.436 -481.788 13.121 -480.306 13.805 C-477.297 15.197 -474.29 16.595 -471.287 17.999 C-467.463 19.785 -463.633 21.557 -459.801 23.324 C-445.706 29.83 -431.662 36.442 -417.622 43.065 C-409.976 46.67 -402.317 50.245 -394.638 53.781 C-381.436 59.862 -368.372 66.194 -355.323 72.596 C-339.644 80.281 -323.808 87.58 -307.865 94.698 C-305 96 -305 96 -303.064 97.118 C-296.425 99.954 -284.623 93.672 -278.125 91.484 C-276.77 91.032 -275.415 90.58 -274.06 90.128 C-270.451 88.923 -266.844 87.713 -263.237 86.501 C-260.236 85.494 -257.235 84.49 -254.233 83.486 C-236.547 77.572 -218.883 71.599 -201.249 65.536 C-188.98 61.32 -176.667 57.266 -164.317 53.299 C-153.549 49.838 -142.826 46.266 -132.132 42.588 C-108.331 34.406 -84.472 26.395 -60.603 18.417 C-55.968 16.868 -51.336 15.315 -46.704 13.757 C-41.005 11.841 -35.304 9.933 -29.6 8.029 C-27.455 7.312 -25.31 6.591 -23.165 5.869 C-20.206 4.872 -17.244 3.884 -14.28 2.899 C-13.845 2.751 -13.845 2.751 -11.64 2.002 C-7.657 0.688 -4.255 -0.402 0 0 Z " fill="#001A4D" transform="translate(512,1369)"/>
<path d="M0 0 C0.336 0.08 0.336 0.08 2.036 0.483 C23.47 5.693 40.981 15.946 57 31 C57.307 31.269 57.307 31.269 58.863 32.633 C76.595 48.856 86.419 77.77 89 101 C89.11 101.945 89.219 102.89 89.332 103.863 C92.752 138.286 85.949 174.441 64.383 202.148 C44.734 225.663 17.102 236.504 -12.769 239.738 C-24.073 240.654 -35.484 240.295 -46.812 240.188 C-51.463 240.157 -51.463 240.157 -75 240 C-75 214.59 -75 189.18 -75 163 C-53.938 162.688 -53.938 162.688 -47.39 162.612 C-29.694 162.326 -10.414 161.253 3.09 148.312 C11.066 138.656 11.692 127.012 11 115 C9.533 104.733 5.484 94.827 -2.898 88.309 C-19.151 78.189 -39.829 77.845 -58.066 81.969 C-75.623 86.374 -90.497 95.028 -104 107 C-104.906 107.797 -105.812 108.593 -106.746 109.414 C-112.951 114.987 -118.902 120.804 -124.812 126.688 C-125.518 127.388 -126.223 128.089 -126.95 128.811 C-130.87 132.743 -134.603 136.776 -138.229 140.98 C-142.035 145.321 -146.062 149.461 -150.039 153.645 C-153.907 157.729 -157.678 161.875 -161.365 166.125 C-196.919 206.914 -236.616 233.704 -291.631 237.855 C-330.402 240.228 -368.743 231.759 -398.465 205.852 C-415.635 189.617 -427.545 165.224 -428.291 141.485 C-428.317 139.502 -428.332 137.518 -428.336 135.535 C-428.343 134.462 -428.349 133.39 -428.356 132.284 C-428.366 130.023 -428.371 127.761 -428.371 125.5 C-428.375 122.103 -428.411 118.707 -428.449 115.311 C-428.621 82.188 -419.142 54.37 -395.812 30.438 C-373.347 8.054 -342.709 -1.034 -311.613 -1.139 C-311.129 -1.138 -311.129 -1.138 -308.68 -1.133 C-308.167 -1.133 -308.167 -1.133 -305.573 -1.136 C-303.43 -1.136 -301.287 -1.135 -299.145 -1.13 C-295.849 -1.125 -292.553 -1.13 -289.258 -1.137 C-287.169 -1.136 -285.081 -1.135 -282.992 -1.133 C-282.004 -1.135 -281.015 -1.137 -279.997 -1.139 C-279.544 -1.137 -279.544 -1.137 -277.253 -1.129 C-276.454 -1.129 -275.654 -1.128 -274.831 -1.127 C-273 -1 -273 -1 -272 0 C-271.905 2.434 -271.874 4.839 -271.886 7.274 C-271.886 8.035 -271.886 8.796 -271.886 9.58 C-271.887 12.106 -271.895 14.633 -271.902 17.16 C-271.904 18.908 -271.906 20.655 -271.907 22.402 C-271.91 27.01 -271.92 31.618 -271.931 36.227 C-271.942 40.925 -271.946 45.624 -271.951 50.322 C-271.962 59.548 -271.979 68.774 -272 78 C-273.199 78.015 -274.398 78.029 -275.633 78.044 C-280.148 78.103 -284.661 78.18 -289.175 78.262 C-291.117 78.295 -293.058 78.324 -295 78.346 C-328.686 78.755 -328.686 78.755 -339.805 88.598 C-349.09 98.737 -350.558 110.678 -350.254 123.891 C-349.914 131.381 -347.964 138.253 -343 144 C-331.463 153.803 -316.175 154.797 -301.66 153.762 C-268.926 150.303 -243.985 129.704 -223.172 105.453 C-220.229 102.129 -217.171 98.917 -214.125 95.688 C-210.112 91.424 -206.211 87.146 -202.562 82.562 C-196.48 74.976 -189.738 68.002 -183 61 C-182.335 60.306 -181.67 59.612 -180.984 58.897 C-172.2 49.777 -163.207 41.494 -153 34 C-151.871 33.152 -150.742 32.305 -149.613 31.457 C-107.527 0.246 -51.43 -12.632 0 0 Z " fill="#001A4D" transform="translate(428,1678)"/>
<path d="M0 0 C1.312 0.002 2.625 0.004 3.977 0.007 C4.699 0.007 5.421 0.006 6.165 0.006 C8.562 0.007 10.959 0.015 13.356 0.023 C15.013 0.024 16.671 0.026 18.329 0.027 C22.7 0.031 27.071 0.041 31.443 0.052 C35.9 0.062 40.357 0.066 44.815 0.071 C53.567 0.082 62.318 0.099 71.07 0.12 C72.648 3.275 72.207 6.659 72.197 10.123 C72.199 10.96 72.201 11.797 72.202 12.659 C72.206 15.478 72.203 18.298 72.2 21.118 C72.201 23.133 72.203 25.148 72.205 27.163 C72.21 32.649 72.208 38.134 72.205 43.62 C72.202 49.351 72.205 55.081 72.206 60.812 C72.208 70.439 72.206 80.065 72.201 89.692 C72.195 100.832 72.197 111.972 72.203 123.113 C72.207 132.664 72.208 142.216 72.205 151.768 C72.204 157.478 72.203 163.189 72.207 168.899 C72.21 174.268 72.208 179.636 72.202 185.005 C72.2 186.979 72.201 188.953 72.203 190.928 C72.206 193.615 72.202 196.303 72.197 198.99 C72.2 199.778 72.202 200.565 72.204 201.377 C72.193 204.56 72.085 207.077 71.07 210.12 C67.884 211.713 64.439 211.256 60.94 211.246 C60.086 211.248 59.231 211.249 58.351 211.251 C55.455 211.254 52.56 211.251 49.665 211.247 C47.581 211.248 45.497 211.25 43.413 211.252 C37.661 211.256 31.91 211.254 26.159 211.251 C19.966 211.249 13.773 211.252 7.58 211.255 C-3.859 211.259 -15.298 211.259 -26.736 211.256 C-37.302 211.254 -47.867 211.253 -58.432 211.254 C-58.782 211.254 -58.782 211.254 -60.553 211.254 C-63.394 211.255 -66.234 211.255 -69.075 211.255 C-95.74 211.258 -122.405 211.256 -149.07 211.25 C-172.782 211.245 -196.493 211.246 -220.205 211.251 C-246.822 211.256 -273.438 211.258 -300.055 211.255 C-302.89 211.255 -305.726 211.254 -308.561 211.254 C-309.259 211.254 -309.957 211.254 -310.676 211.254 C-321.238 211.253 -331.799 211.254 -342.361 211.257 C-354.364 211.259 -366.368 211.259 -378.371 211.253 C-384.501 211.251 -390.632 211.25 -396.763 211.253 C-402.365 211.256 -407.968 211.254 -413.57 211.249 C-415.606 211.248 -417.643 211.248 -419.679 211.251 C-422.428 211.254 -425.176 211.251 -427.925 211.246 C-428.732 211.248 -429.539 211.251 -430.371 211.253 C-435.815 211.234 -435.815 211.234 -436.93 210.12 C-437.025 207.534 -437.055 204.974 -437.043 202.388 C-437.043 201.983 -437.043 201.983 -437.044 199.934 C-437.043 197.245 -437.035 194.556 -437.027 191.866 C-437.025 190.007 -437.024 188.147 -437.023 186.288 C-437.019 181.384 -437.009 176.48 -436.998 171.576 C-436.988 166.576 -436.983 161.576 -436.978 156.575 C-436.968 146.757 -436.951 136.939 -436.93 127.12 C-432.216 125.616 -428.267 124.87 -423.275 124.871 C-421.969 124.867 -420.662 124.862 -419.316 124.857 C-417.878 124.862 -416.44 124.868 -415.002 124.873 C-413.465 124.871 -411.928 124.869 -410.39 124.866 C-406.172 124.859 -401.954 124.865 -397.735 124.873 C-393.181 124.88 -388.626 124.875 -384.072 124.872 C-375.142 124.867 -366.211 124.872 -357.281 124.881 C-346.843 124.892 -336.405 124.892 -325.968 124.891 C-307.294 124.891 -288.621 124.9 -269.947 124.914 C-251.92 124.928 -233.893 124.936 -215.866 124.935 C-215.314 124.935 -215.314 124.935 -212.518 124.935 C-211.967 124.935 -211.967 124.935 -209.176 124.935 C-188.569 124.934 -167.961 124.94 -147.354 124.949 C-141.143 124.951 -134.931 124.953 -128.719 124.953 C-41.753 124.959 -41.753 124.959 -5.93 126.12 C-5.934 125.289 -5.939 124.457 -5.944 123.601 C-6.127 90.862 -6.178 58.155 -4.992 25.433 C-4.97 24.813 -4.97 24.813 -4.86 21.68 C-4.736 18.218 -4.603 14.757 -4.465 11.296 C-4.426 10.27 -4.388 9.244 -4.348 8.187 C-4.328 7.725 -4.328 7.725 -4.227 5.387 C-4.193 4.582 -4.16 3.777 -4.126 2.947 C-3.793 -0.15 -3.179 0.13 0 0 Z " fill="#001A4D" transform="translate(440.92958068847656,740.8797454833984)"/>
<path d="M0 0 C0.354 0.002 0.354 0.002 2.143 0.011 C2.884 0.011 3.625 0.011 4.389 0.01 C6.851 0.011 9.313 0.019 11.775 0.027 C13.478 0.029 15.18 0.03 16.883 0.031 C21.372 0.035 25.862 0.045 30.352 0.056 C34.93 0.066 39.508 0.071 44.086 0.076 C53.075 0.086 62.064 0.103 71.053 0.124 C72.253 8.599 72.194 17.043 72.182 25.583 C72.183 27.243 72.185 28.903 72.187 30.564 C72.192 35.059 72.19 39.554 72.187 44.049 C72.184 48.785 72.187 53.522 72.188 58.259 C72.19 66.232 72.188 74.206 72.183 82.179 C72.177 91.323 72.179 100.468 72.185 109.612 C72.189 117.513 72.19 125.413 72.187 133.313 C72.186 138.009 72.185 142.705 72.189 147.4 C72.199 164.465 72.185 181.521 71.607 198.578 C71.568 199.751 71.529 200.924 71.489 202.133 C71.448 203.184 71.407 204.234 71.364 205.317 C71.328 206.229 71.293 207.14 71.256 208.08 C71.053 210.124 71.053 210.124 70.053 211.124 C67.376 211.225 64.725 211.26 62.048 211.253 C61.195 211.255 60.342 211.257 59.463 211.258 C56.567 211.263 53.67 211.261 50.774 211.258 C48.692 211.26 46.609 211.262 44.527 211.265 C38.775 211.271 33.023 211.271 27.272 211.27 C21.08 211.27 14.888 211.275 8.697 211.28 C-3.445 211.288 -15.586 211.291 -27.727 211.291 C-37.59 211.292 -47.453 211.294 -57.316 211.297 C-60.152 211.298 -62.987 211.299 -65.822 211.3 C-66.174 211.3 -66.174 211.3 -67.957 211.301 C-87.791 211.307 -107.624 211.311 -127.457 211.31 C-128.206 211.31 -128.954 211.31 -129.725 211.31 C-133.518 211.31 -137.311 211.31 -141.105 211.31 C-141.858 211.31 -142.611 211.31 -143.388 211.31 C-144.911 211.31 -146.435 211.31 -147.958 211.31 C-171.67 211.309 -195.381 211.317 -219.092 211.33 C-245.708 211.346 -272.323 211.354 -298.938 211.353 C-301.774 211.353 -304.609 211.353 -307.445 211.353 C-308.143 211.353 -308.841 211.353 -309.561 211.353 C-320.819 211.353 -332.078 211.359 -343.337 211.368 C-354.643 211.377 -365.95 211.377 -377.256 211.371 C-383.386 211.368 -389.517 211.368 -395.648 211.376 C-401.252 211.384 -406.855 211.383 -412.459 211.374 C-414.495 211.372 -416.531 211.374 -418.566 211.38 C-421.317 211.387 -424.067 211.382 -426.817 211.373 C-427.22 211.376 -427.22 211.376 -429.256 211.388 C-434.719 211.353 -434.719 211.353 -436.947 209.124 C-438.292 205.466 -438.096 201.707 -438.124 197.849 C-438.131 197.123 -438.138 196.398 -438.144 195.65 C-438.164 193.256 -438.176 190.862 -438.186 188.468 C-438.19 187.649 -438.194 186.831 -438.198 185.987 C-438.219 181.658 -438.233 177.328 -438.243 172.999 C-438.254 168.526 -438.288 164.054 -438.328 159.582 C-438.354 156.142 -438.362 152.702 -438.366 149.262 C-438.371 147.613 -438.382 145.964 -438.401 144.315 C-438.425 142.009 -438.424 139.705 -438.417 137.4 C-438.423 136.088 -438.429 134.777 -438.435 133.426 C-437.846 129.437 -437.13 128.527 -433.947 126.124 C-430.713 125.628 -430.713 125.628 -426.787 125.632 C-426.061 125.628 -425.336 125.623 -424.588 125.618 C-422.144 125.608 -419.7 125.626 -417.256 125.643 C-415.491 125.642 -413.726 125.638 -411.962 125.633 C-407.102 125.624 -402.243 125.64 -397.383 125.66 C-392.147 125.677 -386.91 125.672 -381.674 125.669 C-372.598 125.666 -363.522 125.679 -354.446 125.701 C-341.323 125.734 -328.201 125.744 -315.079 125.749 C-293.79 125.758 -272.501 125.785 -251.212 125.823 C-230.528 125.859 -209.845 125.888 -189.162 125.905 C-188.525 125.905 -188.525 125.905 -185.3 125.908 C-178.907 125.913 -172.514 125.918 -166.121 125.923 C-113.063 125.965 -60.005 126.035 -6.947 126.124 C-6.943 125.481 -6.939 124.838 -6.935 124.175 C-6.831 108.544 -6.723 92.913 -6.608 77.282 C-6.553 69.723 -6.499 62.165 -6.45 54.606 C-6.407 48.02 -6.361 41.434 -6.311 34.848 C-6.284 31.358 -6.259 27.869 -6.238 24.38 C-6.215 20.491 -6.184 16.602 -6.153 12.713 C-6.147 11.547 -6.141 10.382 -6.135 9.182 C-6.126 8.128 -6.116 7.075 -6.106 5.99 C-6.102 5.53 -6.102 5.53 -6.086 3.2 C-5.816 -0.847 -3.506 0.008 0 0 Z " fill="#001A4D" transform="translate(440.9474792480469,987.8755798339844)"/>
<path d="M0 0 C0.856 -0.005 1.712 -0.009 2.594 -0.014 C5.489 -0.025 8.382 -0.007 11.277 0.011 C13.362 0.009 15.448 0.006 17.533 0.001 C23.285 -0.008 29.035 0.008 34.786 0.028 C40.981 0.045 47.175 0.039 53.369 0.036 C64.108 0.034 74.847 0.047 85.585 0.069 C96.85 0.093 108.115 0.108 119.381 0.113 C120.081 0.113 120.78 0.113 121.502 0.114 C125.056 0.115 128.61 0.116 132.164 0.117 C157.353 0.126 182.541 0.153 207.73 0.19 C232.203 0.227 256.676 0.255 281.15 0.272 C281.904 0.273 282.658 0.274 283.435 0.274 C291.008 0.279 298.581 0.284 306.153 0.289 C321.581 0.3 337.008 0.311 352.436 0.323 C353.145 0.323 353.854 0.324 354.585 0.324 C401.972 0.361 449.358 0.425 496.744 0.492 C498.414 5.198 499.032 9.244 499.003 14.21 C499.005 14.584 499.005 14.584 499.013 16.479 C499.022 18.936 499.016 21.394 499.01 23.852 C499.011 25.565 499.013 27.278 499.016 28.991 C499.018 32.571 499.014 36.152 499.005 39.733 C498.993 44.329 499 48.924 499.012 53.52 C499.019 57.053 499.017 60.585 499.012 64.118 C499.01 65.813 499.012 67.509 499.017 69.204 C499.022 71.567 499.014 73.929 499.003 76.292 C499.007 76.995 499.011 77.699 499.015 78.423 C498.973 83.264 498.973 83.264 496.744 85.492 C493.997 85.69 491.35 85.76 488.601 85.744 C487.745 85.747 486.889 85.75 486.007 85.753 C483.107 85.76 480.207 85.753 477.307 85.746 C475.22 85.748 473.132 85.752 471.045 85.756 C465.284 85.764 459.523 85.76 453.763 85.754 C447.559 85.749 441.356 85.756 435.153 85.762 C423.695 85.77 412.237 85.769 400.779 85.764 C390.195 85.759 379.612 85.757 369.028 85.76 C368.678 85.76 368.678 85.76 366.904 85.76 C364.058 85.761 361.212 85.762 358.367 85.762 C331.654 85.768 304.94 85.763 278.227 85.752 C254.475 85.743 230.723 85.743 206.972 85.753 C180.308 85.764 153.645 85.768 126.982 85.762 C124.141 85.761 121.301 85.76 118.46 85.76 C117.761 85.76 117.061 85.76 116.341 85.759 C105.762 85.757 95.183 85.76 84.604 85.765 C72.579 85.77 60.555 85.769 48.53 85.758 C42.389 85.753 36.248 85.751 30.108 85.758 C24.495 85.763 18.882 85.76 13.269 85.75 C11.23 85.747 9.191 85.748 7.152 85.753 C4.397 85.759 1.642 85.753 -1.113 85.744 C-1.919 85.749 -2.725 85.753 -3.555 85.758 C-9.028 85.72 -9.028 85.72 -11.256 83.492 C-11.459 80.984 -11.539 78.586 -11.531 76.077 C-11.536 75.312 -11.541 74.548 -11.546 73.76 C-11.56 71.226 -11.559 68.691 -11.557 66.156 C-11.561 64.397 -11.565 62.639 -11.57 60.88 C-11.577 57.189 -11.577 53.499 -11.572 49.809 C-11.566 45.078 -11.583 40.348 -11.606 35.618 C-11.621 31.984 -11.622 28.35 -11.618 24.716 C-11.619 22.972 -11.624 21.228 -11.634 19.484 C-11.647 17.045 -11.64 14.606 -11.628 12.167 C-11.636 11.445 -11.644 10.724 -11.651 9.981 C-11.622 7.164 -11.435 4.881 -10.249 2.306 C-7.188 -0.48 -3.932 -0.051 0 0 Z " fill="#001A4D" transform="translate(14.255915641784668,1253.5078086853027)"/>
<path d="M0 0 C0.878 0.005 1.755 0.011 2.66 0.017 C15.953 0.128 27.961 1.067 40.188 6.688 C40.539 6.84 40.539 6.84 42.32 7.612 C70.682 20.027 91.609 41.947 103.188 70.688 C113.292 98.942 112.092 130.865 99.612 158.152 C86.701 184.473 63.929 204.518 36.309 214.279 C35.547 214.537 34.785 214.796 34 215.062 C33.3 215.301 32.601 215.54 31.88 215.786 C12.128 222.103 -11.128 222.217 -30.812 215.688 C-31.472 215.479 -32.132 215.27 -32.812 215.054 C-48.103 210.13 -61.917 202.538 -73.812 191.688 C-74.578 191.003 -75.344 190.319 -76.133 189.613 C-96.3 170.605 -108.743 142.532 -110.098 114.984 C-110.973 84.344 -99.519 55.123 -78.524 32.879 C-68.728 22.863 -58.003 15.5 -45.438 9.375 C-44.827 9.073 -44.217 8.772 -43.588 8.461 C-29.282 1.867 -15.603 -0.21 0 0 Z " fill="#FB6E33" transform="translate(2048.8125,-0.6875)"/>
</svg>
